<svg width="16" height="14" viewBox="0 0 16 14" fill="none" xmlns="http://www.w3.org/2000/svg">
<path fill-rule="evenodd" clip-rule="evenodd" d="M0 0.75C0 0.335786 0.335786 0 0.75 0H12.25C12.6642 0 13 0.335786 13 0.75C13 1.16421 12.6642 1.5 12.25 1.5H0.75C0.335786 1.5 0 1.16421 0 0.75ZM0 4.5C0 4.08579 0.335786 3.75 0.75 3.75H8.25822C8.67243 3.75 9.00822 4.08579 9.00822 4.5C9.00822 4.91421 8.67243 5.25 8.25822 5.25H0.75C0.335786 5.25 0 4.91421 0 4.5ZM12 4C12.4142 4 12.75 4.33579 12.75 4.75L12.75 11.3401L14.7004 9.23966C14.9823 8.93613 15.4568 8.91855 15.7603 9.20041C16.0639 9.48226 16.0814 9.95681 15.7996 10.2603L12.5496 13.7603C12.4077 13.9132 12.2085 14 12 14C11.7914 14 11.5923 13.9132 11.4504 13.7603L8.2004 10.2603C7.91855 9.95681 7.93613 9.48226 8.23966 9.20041C8.54319 8.91855 9.01774 8.93613 9.29959 9.23966L11.25 11.3401L11.25 4.75C11.25 4.33579 11.5858 4 12 4ZM0 8.25C0 7.83579 0.335786 7.5 0.75 7.5H5.31205C5.72626 7.5 6.06205 7.83579 6.06205 8.25C6.06205 8.66421 5.72626 9 5.31205 9H0.75C0.335786 9 0 8.66421 0 8.25Z" fill="#667085"/>
</svg>
